<svg xmlns="http://www.w3.org/2000/svg" viewBox="0 0 265 265" role="img" class="bu-sheep" aria-labelledby="bu-title"><title id="bu-title">BU — clean rounded contours and soft shading</title><defs><clipPath id="part-body"><path d="M100.25,78.00L133.75,78.00Q135.00,78.00 136.18,78.41L163.21,87.73Q164.00,88.00 164.00,88.84L164.00,89.16Q164.00,90.00 164.70,90.47L166.30,91.53Q167.00,92.00 167.00,92.84L167.00,93.16Q167.00,94.00 167.70,94.47L168.96,95.31Q170.00,96.00 170.46,97.16L171.54,99.84Q172.00,101.00 172.80,101.96L181.20,112.04Q182.00,113.00 181.96,114.25L181.04,144.75Q181.00,146.00 182.23,146.21L185.77,146.79Q187.00,147.00 186.70,148.21L186.23,150.09Q186.00,151.00 186.84,151.42L187.16,151.58Q188.00,152.00 188.00,152.94L188.00,169.75Q188.00,171.00 186.81,171.40L186.19,171.60Q185.00,172.00 184.70,173.21L184.30,174.79Q184.00,176.00 182.88,176.56L181.12,177.44Q180.00,178.00 180.00,179.25L180.00,181.75Q180.00,183.00 178.96,183.69L178.04,184.31Q177.00,185.00 177.30,186.21L177.70,187.79Q178.00,189.00 176.79,189.30L175.21,189.70Q174.00,190.00 173.54,191.16L172.46,193.84Q172.00,195.00 170.75,195.00L170.25,195.00Q169.00,195.00 168.44,196.12L167.56,197.88Q167.00,199.00 165.76,198.88L158.24,198.12Q157.00,198.00 156.25,199.00L154.75,201.00Q154.00,202.00 152.75,202.00L152.25,202.00Q151.00,202.00 150.12,202.88L147.59,205.41Q147.00,206.00 147.00,206.84L147.00,207.16Q147.00,208.00 146.17,207.86L141.93,207.15Q141.00,207.00 140.58,207.84L140.42,208.16Q140.00,209.00 139.06,209.05L122.25,209.93Q121.00,210.00 119.77,209.75L117.23,209.25Q116.00,209.00 115.60,207.81L114.40,204.19Q114.00,203.00 112.75,203.00L112.19,203.00Q111.00,203.00 110.16,203.84L109.84,204.16Q109.00,205.00 107.81,205.00L82.25,205.00Q81.00,205.00 80.31,203.96L79.69,203.04Q79.00,202.00 77.81,202.40L74.19,203.60Q73.00,204.00 72.44,205.12L71.56,206.88Q71.00,208.00 69.75,207.93L53.94,207.05Q53.00,207.00 52.58,206.16L52.42,205.84Q52.00,205.00 51.06,205.00L50.19,205.00Q49.00,205.00 48.16,205.84L47.84,206.16Q47.00,207.00 45.98,206.39L43.07,204.64Q42.00,204.00 42.30,202.79L42.70,201.21Q43.00,200.00 41.88,199.44L39.75,198.38Q39.00,198.00 39.00,197.16L39.00,196.84Q39.00,196.00 38.41,195.41L34.88,191.88Q34.00,191.00 32.79,190.70L31.21,190.30Q30.00,190.00 30.00,188.75L30.00,187.25Q30.00,186.00 28.84,185.54L26.16,184.46Q25.00,184.00 25.00,182.75L25.00,168.25Q25.00,167.00 23.77,166.75L21.23,166.25Q20.00,166.00 20.00,164.75L20.00,164.25Q20.00,163.00 18.79,162.70L17.21,162.30Q16.00,162.00 15.75,160.77L15.25,158.23Q15.00,157.00 13.88,156.44L12.12,155.56Q11.00,155.00 11.00,153.75L11.00,138.25Q11.00,137.00 12.12,136.44L13.88,135.56Q15.00,135.00 15.00,133.75L15.00,133.25Q15.00,132.00 15.75,131.00L17.25,129.00Q18.00,128.00 19.21,127.70L20.79,127.30Q22.00,127.00 22.00,125.75L22.00,124.94Q22.00,124.00 21.16,123.58L20.84,123.42Q20.00,123.00 20.00,122.06L20.00,111.25Q20.00,110.00 20.88,109.12L24.12,105.88Q25.00,105.00 25.00,103.75L25.00,103.25Q25.00,102.00 26.12,101.44L27.88,100.56Q29.00,100.00 29.00,98.75L29.00,98.25Q29.00,97.00 30.19,96.60L30.81,96.40Q32.00,96.00 32.64,94.93L34.36,92.07Q35.00,91.00 36.23,90.75L38.77,90.25Q40.00,90.00 40.56,88.88L41.44,87.12Q42.00,86.00 43.25,86.00L55.75,86.00Q57.00,86.00 57.40,84.81L58.60,81.19Q59.00,80.00 60.25,80.00L80.75,80.00Q82.00,80.00 82.25,81.23L82.75,83.77Q83.00,85.00 84.25,85.00L84.75,85.00Q86.00,85.00 87.10,84.41L97.90,78.59Q99.00,78.00 100.25,78.00Z"/></clipPath><clipPath id="part-face"><path d="M152.25,55.00L157.75,55.00Q159.00,55.00 160.17,55.44L165.83,57.56Q167.00,58.00 168.25,58.00L170.75,58.00Q172.00,58.00 173.21,58.30L183.09,60.77Q184.00,61.00 184.42,61.84L184.58,62.16Q185.00,63.00 185.94,63.00L198.75,63.00Q200.00,63.00 200.00,64.25L200.00,66.75Q200.00,68.00 201.00,68.75L203.00,70.25Q204.00,71.00 204.18,72.24L204.82,76.76Q205.00,78.00 206.12,78.56L207.88,79.44Q209.00,80.00 209.00,81.25L209.00,82.75Q209.00,84.00 210.12,84.56L211.88,85.44Q213.00,86.00 213.00,87.25L213.00,87.81Q213.00,89.00 213.84,89.84L214.41,90.41Q215.00,91.00 215.00,91.84L215.00,92.16Q215.00,93.00 214.30,93.47L213.04,94.31Q212.00,95.00 212.88,95.88L214.12,97.12Q215.00,98.00 215.00,99.25L215.00,118.75Q215.00,120.00 213.84,120.46L211.16,121.54Q210.00,122.00 210.00,123.25L210.00,128.75Q210.00,130.00 208.84,130.46L206.16,131.54Q205.00,132.00 205.00,133.25L205.00,134.75Q205.00,136.00 203.79,136.30L202.21,136.70Q201.00,137.00 200.36,138.07L198.64,140.93Q198.00,142.00 196.75,142.00L196.25,142.00Q195.00,142.00 195.00,143.25L195.00,143.81Q195.00,145.00 194.16,145.84L193.84,146.16Q193.00,147.00 191.81,147.00L188.25,147.00Q187.00,147.00 186.44,148.12L184.56,151.88Q184.00,153.00 182.75,152.90L172.25,152.10Q171.00,152.00 170.25,153.00L168.75,155.00Q168.00,156.00 166.75,156.00L141.25,156.00Q140.00,156.00 139.44,154.88L138.56,153.12Q138.00,152.00 136.75,152.00L132.25,152.00Q131.00,152.00 130.31,150.96L129.69,150.04Q129.00,149.00 127.75,149.00L127.25,149.00Q126.00,149.00 125.60,147.81L125.40,147.19Q125.00,146.00 123.75,146.00L123.25,146.00Q122.00,146.00 121.70,144.79L121.30,143.21Q121.00,142.00 119.84,141.54L117.16,140.46Q116.00,140.00 116.00,138.75L116.00,137.25Q116.00,136.00 115.20,135.04L111.80,130.96Q111.00,130.00 111.00,128.75L111.00,127.94Q111.00,127.00 110.16,126.58L109.84,126.42Q109.00,126.00 108.97,125.06L108.03,91.25Q108.00,90.00 109.23,89.75L111.77,89.25Q113.00,89.00 113.18,87.76L113.82,83.24Q114.00,82.00 115.04,81.31L116.30,80.47Q117.00,80.00 117.00,79.16L117.00,78.84Q117.00,78.00 117.59,77.41L121.12,73.88Q122.00,73.00 122.64,71.93L127.36,64.07Q128.00,63.00 129.21,62.70L138.79,60.30Q140.00,60.00 141.14,59.48L149.86,55.52Q151.00,55.00 152.25,55.00Z"/></clipPath><clipPath id="part-tuft"><path d="M139.25,16.00L159.75,16.00Q161.00,16.00 161.56,17.12L162.44,18.88Q163.00,20.00 164.23,20.25L166.77,20.75Q168.00,21.00 168.00,22.25L168.00,22.75Q168.00,24.00 169.25,24.00L170.75,24.00Q172.00,24.00 172.30,22.79L172.70,21.21Q173.00,20.00 174.25,20.00L188.75,20.00Q190.00,20.00 190.56,21.12L191.44,22.88Q192.00,24.00 193.24,24.18L197.76,24.82Q199.00,25.00 199.40,26.19L199.60,26.81Q200.00,28.00 201.07,28.64L203.93,30.36Q205.00,31.00 205.00,32.25L205.00,32.75Q205.00,34.00 206.07,34.64L208.93,36.36Q210.00,37.00 210.00,38.25L210.00,50.81Q210.00,52.00 209.16,52.84L208.84,53.16Q208.00,54.00 208.17,55.18L208.82,59.76Q209.00,61.00 207.76,61.18L203.24,61.82Q202.00,62.00 201.38,63.09L198.62,67.91Q198.00,69.00 196.75,69.00L181.94,69.00Q181.00,69.00 180.58,68.16L180.42,67.84Q180.00,67.00 179.06,67.00L178.25,67.00Q177.00,67.00 176.75,68.23L176.25,70.77Q176.00,72.00 174.81,72.40L174.19,72.60Q173.00,73.00 172.31,74.04L169.69,77.96Q169.00,79.00 167.75,79.00L165.25,79.00Q164.00,79.00 163.60,80.19L163.40,80.81Q163.00,82.00 161.96,82.69L161.04,83.31Q160.00,84.00 158.75,84.00L144.25,84.00Q143.00,84.00 142.25,83.00L140.71,80.95Q140.00,80.00 139.16,80.84L138.84,81.16Q138.00,82.00 138.00,83.19L138.00,84.75Q138.00,86.00 137.00,86.75L127.00,94.25Q126.00,95.00 124.75,95.00L115.25,95.00Q114.00,95.00 112.88,95.56L111.12,96.44Q110.00,97.00 109.25,96.00L107.75,94.00Q107.00,93.00 106.12,93.88L103.88,96.12Q103.00,97.00 101.76,96.84L96.24,96.16Q95.00,96.00 94.31,97.04L93.69,97.96Q93.00,99.00 91.75,99.00L90.25,99.00Q89.00,99.00 88.31,97.96L87.69,97.04Q87.00,96.00 85.75,96.00L85.25,96.00Q84.00,96.00 83.70,94.79L83.30,93.21Q83.00,92.00 81.79,91.70L80.21,91.30Q79.00,91.00 78.44,89.88L77.56,88.12Q77.00,87.00 77.00,85.75L77.00,68.25Q77.00,67.00 78.21,66.70L79.79,66.30Q81.00,66.00 81.30,64.79L81.70,63.21Q82.00,62.00 83.19,61.60L83.81,61.40Q85.00,61.00 85.69,59.96L88.31,56.04Q89.00,55.00 90.24,54.82L94.76,54.18Q96.00,54.00 96.00,52.75L96.00,44.25Q96.00,43.00 97.21,42.70L98.79,42.30Q100.00,42.00 100.46,40.84L101.54,38.16Q102.00,37.00 103.25,37.00L104.75,37.00Q106.00,37.00 106.40,35.81L107.60,32.19Q108.00,31.00 109.25,31.00L122.75,31.00Q124.00,31.00 124.00,29.75L124.00,28.25Q124.00,27.00 125.23,26.75L127.77,26.25Q129.00,26.00 129.40,24.81L130.60,21.19Q131.00,20.00 132.25,20.00L135.75,20.00Q137.00,20.00 137.30,18.79L137.70,17.21Q138.00,16.00 139.25,16.00Z"/></clipPath><clipPath id="part-ear-l"><path d="M106.24,78.18L117.76,79.82Q119.00,80.00 119.61,81.09L123.39,87.91Q124.00,89.00 124.00,90.25L124.00,92.75Q124.00,94.00 122.96,94.69L121.70,95.53Q121.00,96.00 121.00,96.84L121.00,97.16Q121.00,98.00 120.45,98.64L115.81,104.05Q115.00,105.00 114.94,106.25L114.06,125.75Q114.00,127.00 112.75,127.00L110.25,127.00Q109.00,127.00 109.00,128.25L109.00,130.75Q109.00,132.00 108.00,132.75L106.00,134.25Q105.00,135.00 104.60,136.19L104.40,136.81Q104.00,138.00 102.75,138.00L102.25,138.00Q101.00,138.00 100.25,139.00L95.75,145.00Q95.00,146.00 93.75,146.06L76.25,146.94Q75.00,147.00 74.75,145.77L74.25,143.23Q74.00,142.00 72.84,141.54L70.16,140.46Q69.00,140.00 68.92,138.75L68.08,125.25Q68.00,124.00 68.98,123.22L72.02,120.78Q73.00,120.00 73.00,118.75L73.00,118.25Q73.00,117.00 74.04,116.31L74.96,115.69Q76.00,115.00 76.00,113.75L76.00,113.25Q76.00,112.00 77.19,111.60L77.81,111.40Q79.00,111.00 79.30,109.79L79.80,107.81Q80.00,107.00 80.84,107.00L81.16,107.00Q82.00,107.00 82.38,106.25L83.44,104.12Q84.00,103.00 85.12,102.44L86.88,101.56Q88.00,101.00 88.00,99.75L88.00,92.94Q88.00,92.00 88.84,91.58L89.16,91.42Q90.00,91.00 90.89,91.30L94.81,92.60Q96.00,93.00 96.00,91.75L96.00,87.25Q96.00,86.00 96.93,85.17L104.07,78.83Q105.00,78.00 106.24,78.18Z"/></clipPath><clipPath id="part-ear-r"><path d="M203.25,56.06L220.75,56.94Q222.00,57.00 222.96,57.80L227.04,61.20Q228.00,62.00 229.25,62.00L232.75,62.00Q234.00,62.00 234.30,63.21L234.70,64.79Q235.00,66.00 236.16,66.46L238.84,67.54Q240.00,68.00 240.00,69.25L240.00,70.75Q240.00,72.00 241.16,72.46L243.84,73.54Q245.00,74.00 245.00,75.25L245.00,86.75Q245.00,88.00 244.00,88.75L242.00,90.25Q241.00,91.00 240.60,92.19L240.40,92.81Q240.00,94.00 238.81,94.40L238.19,94.60Q237.00,95.00 236.60,96.19L236.40,96.81Q236.00,98.00 234.75,98.00L220.25,98.00Q219.00,98.00 218.44,96.88L217.56,95.12Q217.00,94.00 215.76,94.16L210.24,94.84Q209.00,95.00 208.25,94.00L206.75,92.00Q206.00,91.00 206.00,89.75L206.00,87.25Q206.00,86.00 205.00,85.25L203.00,83.75Q202.00,83.00 201.60,81.81L201.40,81.19Q201.00,80.00 199.75,80.00L195.25,80.00Q194.00,80.00 193.01,79.23L185.99,73.77Q185.00,73.00 184.75,71.77L183.25,64.23Q183.00,63.00 184.02,62.27L188.98,58.73Q190.00,58.00 191.24,58.16L196.76,58.84Q198.00,59.00 199.00,58.25L201.00,56.75Q202.00,56.00 203.25,56.06Z"/></clipPath><clipPath id="part-leg-bl"><path d="M45.25,174.00L67.75,174.00Q69.00,174.00 69.78,174.98L72.22,178.02Q73.00,179.00 73.00,180.25L73.00,228.75Q73.00,230.00 72.36,231.07L67.64,238.93Q67.00,240.00 65.75,240.00L51.25,240.00Q50.00,240.00 49.70,238.79L49.30,237.21Q49.00,236.00 47.88,235.44L46.12,234.56Q45.00,234.00 44.90,232.75L43.10,210.25Q43.00,209.00 41.96,208.31L41.04,207.69Q40.00,207.00 40.00,205.75L40.00,180.25Q40.00,179.00 40.78,178.02L43.22,174.98Q44.00,174.00 45.25,174.00Z"/></clipPath><clipPath id="part-leg-br"><path d="M73.25,174.00L82.75,174.00Q84.00,174.00 84.78,174.98L87.22,178.02Q88.00,179.00 88.00,180.25L88.00,205.75Q88.00,207.00 86.96,207.69L86.04,208.31Q85.00,209.00 85.00,210.25L85.00,224.75Q85.00,226.00 83.79,226.30L82.21,226.70Q81.00,227.00 80.44,228.12L79.56,229.88Q79.00,231.00 77.75,231.00L75.25,231.00Q74.00,231.00 73.70,229.79L73.30,228.21Q73.00,227.00 71.84,226.54L69.16,225.46Q68.00,225.00 68.00,223.75L68.00,180.25Q68.00,179.00 68.78,178.02L71.22,174.98Q72.00,174.00 73.25,174.00Z"/></clipPath><clipPath id="part-leg-fl"><path d="M124.25,174.00L147.75,174.00Q149.00,174.00 149.78,174.98L152.22,178.02Q153.00,179.00 153.00,180.25L153.00,231.06Q153.00,232.00 152.16,232.42L151.84,232.58Q151.00,233.00 150.77,233.91L150.30,235.79Q150.00,237.00 148.79,237.30L147.21,237.70Q146.00,238.00 145.70,239.21L145.30,240.79Q145.00,242.00 143.75,242.00L132.25,242.00Q131.00,242.00 130.60,240.81L130.40,240.19Q130.00,239.00 128.88,238.44L127.12,237.56Q126.00,237.00 126.00,235.75L126.00,228.25Q126.00,227.00 124.84,226.54L122.16,225.46Q121.00,225.00 121.00,223.75L121.00,211.19Q121.00,210.00 120.16,209.16L119.84,208.84Q119.00,208.00 119.00,206.81L119.00,180.25Q119.00,179.00 119.78,178.02L122.22,174.98Q123.00,174.00 124.25,174.00Z"/></clipPath><clipPath id="part-leg-fr"><path d="M153.25,174.00L165.75,174.00Q167.00,174.00 167.78,174.98L170.22,178.02Q171.00,179.00 171.00,180.25L171.00,205.75Q171.00,207.00 169.96,207.69L169.04,208.31Q168.00,209.00 168.00,210.25L168.00,227.75Q168.00,229.00 166.88,229.56L163.12,231.44Q162.00,232.00 160.75,232.00L154.25,232.00Q153.00,232.00 152.31,230.96L151.69,230.04Q151.00,229.00 149.81,228.60L149.19,228.40Q148.00,228.00 148.00,226.75L148.00,180.25Q148.00,179.00 148.78,178.02L151.22,174.98Q152.00,174.00 153.25,174.00Z"/></clipPath><filter id="bu-soft-shade" x="-15%" y="-15%" width="130%" height="130%" color-interpolation-filters="sRGB"><feGaussianBlur stdDeviation="0.65"/></filter><clipPath id="bu-eye-l"><ellipse class="bu-aperture-left" cx="138" cy="116.7" rx="11.7" ry="15.7"/></clipPath><clipPath id="bu-eye-r"><ellipse class="bu-aperture-right" cx="191.1" cy="98.7" rx="11" ry="15.6"/></clipPath></defs><style>
  .bu-sheep{--lift:0px;--squash:1;--stretch:1;--tilt:0deg;--head-y:0px;--head-x:0px;--ear-l:0deg;--ear-r:0deg;--leg-fl:0deg;--leg-fr:0deg;--leg-bl:0deg;--leg-br:0deg;--tuck:0px;--lid:0;--closed:0;--happy:0;--mouth:0;--smile:1;--mouth-y:1;--cheek:0;--grass:0;--grass-x:0px;--grass-r:0deg;--sleep:0;--heart:0;--shadow:1;--gaze-x:0px;--gaze-y:0px;--look-tilt:0deg}
  .bu-outline{stroke:#88627c;stroke-width:4;stroke-linejoin:miter;stroke-linecap:square}
  .bu-body{transform:translateY(var(--lift)) scale(var(--stretch),var(--squash));transform-origin:122px 235px}
  .bu-head{transform:translate(var(--head-x),var(--head-y)) rotate(calc(var(--tilt) + var(--look-tilt))) scaleX(var(--head-sx));transform-origin:158px 137px}
  .bu-ear-left{transform:rotate(var(--ear-l));transform-origin:103px 93px}.bu-ear-right{transform:rotate(var(--ear-r));transform-origin:203px 67px}
  .bu-leg-fl{transform:translateY(var(--tuck)) rotate(var(--leg-fl));transform-origin:136px 197px}.bu-leg-fr{transform:translateY(var(--tuck)) rotate(var(--leg-fr));transform-origin:158px 197px}
  .bu-leg-bl{transform:translateY(var(--tuck)) rotate(var(--leg-bl));transform-origin:56px 197px}.bu-leg-br{transform:translateY(var(--tuck)) rotate(var(--leg-br));transform-origin:78px 197px}
  .bu-pupil{transform:translate(calc(var(--gaze-x) + var(--pointer-x)),calc(var(--gaze-y) + var(--pointer-y)))}
  .bu-eye-open{opacity:1}.bu-eye-closed{opacity:calc(clamp(0,(var(--lid) - .88)*8.334,1)*(1 - var(--happy)))}.bu-eye-happy{opacity:calc(clamp(0,(var(--lid) - .88)*8.334,1)*var(--happy))}
  .bu-smile{opacity:var(--smile)}.bu-mouth-open{opacity:var(--mouth);transform:scaleY(var(--mouth-y));transform-origin:175px 129px}
  .bu-cheek-glow{opacity:var(--cheek)}.bu-grass{opacity:var(--grass);transform:translateX(var(--grass-x)) rotate(var(--grass-r));transform-origin:175px 129px}
  .bu-zzz{opacity:var(--sleep)}.bu-heart{opacity:var(--heart)}.bu-shadow{transform:scaleX(var(--shadow));transform-origin:124px 240px}






.bu-ink{fill:#39493d}.bu-skin{fill:#fff0d8}.bu-pink{fill:#efacb9}.bu-wool{fill:#fffbed}

.bu-sheep{--pointer-x:0px;--pointer-y:0px;--face-x:0px;--head-sx:1} .bu-face-features{transform:translateX(var(--face-x))}
.bu-aperture-left{transform:translateY(calc(var(--lid)*3px)) rotate(-18deg) scaleY(calc(1 - var(--lid)));transform-origin:138px 116.7px}.bu-aperture-right{transform:translateY(calc(var(--lid)*3px)) rotate(-15.5deg) scaleY(calc(1 - var(--lid)));transform-origin:191.1px 98.7px}
</style><ellipse class="bu-shadow" cx="111" cy="238" rx="91" ry="12" fill="#a7b198" opacity=".32"/><g class="bu-suspension"><g class="bu-body"><g class="bu-leg bu-leg-br"><g><path fill="#856479" d="M73.25,174.00L82.75,174.00Q84.00,174.00 84.78,174.98L87.22,178.02Q88.00,179.00 88.00,180.25L88.00,205.75Q88.00,207.00 86.96,207.69L86.04,208.31Q85.00,209.00 85.00,210.25L85.00,224.75Q85.00,226.00 83.79,226.30L82.21,226.70Q81.00,227.00 80.44,228.12L79.56,229.88Q79.00,231.00 77.75,231.00L75.25,231.00Q74.00,231.00 73.70,229.79L73.30,228.21Q73.00,227.00 71.84,226.54L69.16,225.46Q68.00,225.00 68.00,223.75L68.00,180.25Q68.00,179.00 68.78,178.02L71.22,174.98Q72.00,174.00 73.25,174.00Z"/><path fill="#fff1db" d="M77.84,179.00L78.16,179.00Q79.00,179.00 79.52,179.66L82.22,183.02Q83.00,184.00 82.93,185.25L82.06,200.06Q82.00,201.00 81.16,201.42L80.84,201.58Q80.00,202.00 79.95,202.94L79.06,220.75Q79.00,222.00 77.81,221.60L74.19,220.40Q73.00,220.00 73.00,218.75L73.00,185.25Q73.00,184.00 73.78,183.02L76.48,179.66Q77.00,179.00 77.84,179.00Z"/></g><g><g clip-path="url(#part-leg-br)"><path d="M83 192 C80.0 197 81.0 204 78.0 209 Q76.0 213 75 216 L83 216Z" fill="#dabca4" opacity=".43" filter="url(#bu-soft-shade)"/></g><path d="M76 213 Q78.5 214 81 213 Q85 213 85 217 L85 226 Q85 230 81 230 H76 Q72 230 72 226 V217 Q72 213 76 213Z" fill="#435443"/></g></g><g class="bu-leg bu-leg-fr"><g><path fill="#856479" d="M153.25,174.00L165.75,174.00Q167.00,174.00 167.78,174.98L170.22,178.02Q171.00,179.00 171.00,180.25L171.00,205.75Q171.00,207.00 169.96,207.69L169.04,208.31Q168.00,209.00 168.00,210.25L168.00,227.75Q168.00,229.00 166.88,229.56L163.12,231.44Q162.00,232.00 160.75,232.00L154.25,232.00Q153.00,232.00 152.31,230.96L151.69,230.04Q151.00,229.00 149.81,228.60L149.19,228.40Q148.00,228.00 148.00,226.75L148.00,180.25Q148.00,179.00 148.78,178.02L151.22,174.98Q152.00,174.00 153.25,174.00Z"/><path fill="#fff1db" d="M158.25,179.00L160.75,179.00Q162.00,179.00 162.78,179.98L165.22,183.02Q166.00,184.00 165.93,185.25L165.07,199.75Q165.00,201.00 164.12,201.88L162.88,203.12Q162.00,204.00 162.06,205.25L162.94,222.75Q163.00,224.00 161.88,224.56L160.12,225.44Q159.00,226.00 157.88,225.44L154.12,223.56Q153.00,223.00 153.00,221.75L153.00,185.25Q153.00,184.00 153.78,183.02L156.22,179.98Q157.00,179.00 158.25,179.00Z"/></g><g><g clip-path="url(#part-leg-fr)"><path d="M166 194 C161.5 199 162.5 206 159.5 211 Q157.5 215 155 218 L166 218Z" fill="#dabca4" opacity=".43" filter="url(#bu-soft-shade)"/></g><path d="M153 215 Q158.5 216 164 215 Q168 215 168 219 L168 227 Q168 231 164 231 H153 Q149 231 149 227 V219 Q149 215 153 215Z" fill="#435443"/></g></g><g class="bu-leg bu-leg-bl"><g><path fill="#856479" d="M45.25,174.00L67.75,174.00Q69.00,174.00 69.78,174.98L72.22,178.02Q73.00,179.00 73.00,180.25L73.00,228.75Q73.00,230.00 72.36,231.07L67.64,238.93Q67.00,240.00 65.75,240.00L51.25,240.00Q50.00,240.00 49.70,238.79L49.30,237.21Q49.00,236.00 47.88,235.44L46.12,234.56Q45.00,234.00 44.90,232.75L43.10,210.25Q43.00,209.00 41.96,208.31L41.04,207.69Q40.00,207.00 40.00,205.75L40.00,180.25Q40.00,179.00 40.78,178.02L43.22,174.98Q44.00,174.00 45.25,174.00Z"/><path fill="#fff1db" d="M50.25,179.00L62.75,179.00Q64.00,179.00 64.78,179.98L67.22,183.02Q68.00,184.00 68.00,185.25L68.00,223.75Q68.00,225.00 67.36,226.07L62.64,233.93Q62.00,235.00 60.75,235.00L56.25,235.00Q55.00,235.00 54.70,233.79L54.30,232.21Q54.00,231.00 52.88,230.44L51.12,229.56Q50.00,229.00 49.95,227.75L49.05,204.25Q49.00,203.00 47.96,202.31L47.04,201.69Q46.00,201.00 45.86,199.76L45.14,193.24Q45.00,192.00 45.00,190.75L45.00,185.25Q45.00,184.00 45.78,183.02L48.22,179.98Q49.00,179.00 50.25,179.00Z"/></g><g><g clip-path="url(#part-leg-bl)"><path d="M68 201 C58.5 206 59.5 213 56.5 218 Q54.5 222 47 225 L68 225Z" fill="#dabca4" opacity=".43" filter="url(#bu-soft-shade)"/></g><path d="M48 222 Q56.5 223 65 222 Q69 222 69 226 L69 235 Q69 239 65 239 H48 Q44 239 44 235 V226 Q44 222 48 222Z" fill="#435443"/></g></g><g class="bu-leg bu-leg-fl"><g><path fill="#856479" d="M124.25,174.00L147.75,174.00Q149.00,174.00 149.78,174.98L152.22,178.02Q153.00,179.00 153.00,180.25L153.00,231.06Q153.00,232.00 152.16,232.42L151.84,232.58Q151.00,233.00 150.77,233.91L150.30,235.79Q150.00,237.00 148.79,237.30L147.21,237.70Q146.00,238.00 145.70,239.21L145.30,240.79Q145.00,242.00 143.75,242.00L132.25,242.00Q131.00,242.00 130.60,240.81L130.40,240.19Q130.00,239.00 128.88,238.44L127.12,237.56Q126.00,237.00 126.00,235.75L126.00,228.25Q126.00,227.00 124.84,226.54L122.16,225.46Q121.00,225.00 121.00,223.75L121.00,211.19Q121.00,210.00 120.16,209.16L119.84,208.84Q119.00,208.00 119.00,206.81L119.00,180.25Q119.00,179.00 119.78,178.02L122.22,174.98Q123.00,174.00 124.25,174.00Z"/><path fill="#fff1db" d="M129.25,179.00L142.75,179.00Q144.00,179.00 144.78,179.98L147.22,183.02Q148.00,184.00 148.00,185.25L148.00,224.75Q148.00,226.00 146.96,226.69L146.04,227.31Q145.00,228.00 145.00,229.25L145.00,229.75Q145.00,231.00 143.88,231.56L142.12,232.44Q141.00,233.00 140.70,234.21L140.30,235.79Q140.00,237.00 138.75,237.00L137.25,237.00Q136.00,237.00 135.60,235.81L135.40,235.19Q135.00,234.00 133.88,233.44L132.12,232.56Q131.00,232.00 131.00,230.75L131.00,223.25Q131.00,222.00 130.12,221.12L127.88,218.88Q127.00,218.00 127.00,216.75L127.00,206.25Q127.00,205.00 125.96,204.31L125.04,203.69Q124.00,203.00 124.00,201.75L124.00,185.25Q124.00,184.00 124.78,183.02L127.22,179.98Q128.00,179.00 129.25,179.00Z"/></g><g><g clip-path="url(#part-leg-fl)"><path d="M148 202 C138.0 207 139.0 214 136.0 219 Q134.0 223 126 226 L148 226Z" fill="#dabca4" opacity=".43" filter="url(#bu-soft-shade)"/></g><path d="M129 223 Q137.5 224 146 223 Q150 223 150 227 L150 237 Q150 241 146 241 H129 Q125 241 125 237 V227 Q125 223 129 223Z" fill="#435443"/></g></g><g class="bu-fleece"><g><path fill="#856479" d="M100.25,78.00L133.75,78.00Q135.00,78.00 136.18,78.41L163.21,87.73Q164.00,88.00 164.00,88.84L164.00,89.16Q164.00,90.00 164.70,90.47L166.30,91.53Q167.00,92.00 167.00,92.84L167.00,93.16Q167.00,94.00 167.70,94.47L168.96,95.31Q170.00,96.00 170.46,97.16L171.54,99.84Q172.00,101.00 172.80,101.96L181.20,112.04Q182.00,113.00 181.96,114.25L181.04,144.75Q181.00,146.00 182.23,146.21L185.77,146.79Q187.00,147.00 186.70,148.21L186.23,150.09Q186.00,151.00 186.84,151.42L187.16,151.58Q188.00,152.00 188.00,152.94L188.00,169.75Q188.00,171.00 186.81,171.40L186.19,171.60Q185.00,172.00 184.70,173.21L184.30,174.79Q184.00,176.00 182.88,176.56L181.12,177.44Q180.00,178.00 180.00,179.25L180.00,181.75Q180.00,183.00 178.96,183.69L178.04,184.31Q177.00,185.00 177.30,186.21L177.70,187.79Q178.00,189.00 176.79,189.30L175.21,189.70Q174.00,190.00 173.54,191.16L172.46,193.84Q172.00,195.00 170.75,195.00L170.25,195.00Q169.00,195.00 168.44,196.12L167.56,197.88Q167.00,199.00 165.76,198.88L158.24,198.12Q157.00,198.00 156.25,199.00L154.75,201.00Q154.00,202.00 152.75,202.00L152.25,202.00Q151.00,202.00 150.12,202.88L147.59,205.41Q147.00,206.00 147.00,206.84L147.00,207.16Q147.00,208.00 146.17,207.86L141.93,207.15Q141.00,207.00 140.58,207.84L140.42,208.16Q140.00,209.00 139.06,209.05L122.25,209.93Q121.00,210.00 119.77,209.75L117.23,209.25Q116.00,209.00 115.60,207.81L114.40,204.19Q114.00,203.00 112.75,203.00L112.19,203.00Q111.00,203.00 110.16,203.84L109.84,204.16Q109.00,205.00 107.81,205.00L82.25,205.00Q81.00,205.00 80.31,203.96L79.69,203.04Q79.00,202.00 77.81,202.40L74.19,203.60Q73.00,204.00 72.44,205.12L71.56,206.88Q71.00,208.00 69.75,207.93L53.94,207.05Q53.00,207.00 52.58,206.16L52.42,205.84Q52.00,205.00 51.06,205.00L50.19,205.00Q49.00,205.00 48.16,205.84L47.84,206.16Q47.00,207.00 45.98,206.39L43.07,204.64Q42.00,204.00 42.30,202.79L42.70,201.21Q43.00,200.00 41.88,199.44L39.75,198.38Q39.00,198.00 39.00,197.16L39.00,196.84Q39.00,196.00 38.41,195.41L34.88,191.88Q34.00,191.00 32.79,190.70L31.21,190.30Q30.00,190.00 30.00,188.75L30.00,187.25Q30.00,186.00 28.84,185.54L26.16,184.46Q25.00,184.00 25.00,182.75L25.00,168.25Q25.00,167.00 23.77,166.75L21.23,166.25Q20.00,166.00 20.00,164.75L20.00,164.25Q20.00,163.00 18.79,162.70L17.21,162.30Q16.00,162.00 15.75,160.77L15.25,158.23Q15.00,157.00 13.88,156.44L12.12,155.56Q11.00,155.00 11.00,153.75L11.00,138.25Q11.00,137.00 12.12,136.44L13.88,135.56Q15.00,135.00 15.00,133.75L15.00,133.25Q15.00,132.00 15.75,131.00L17.25,129.00Q18.00,128.00 19.21,127.70L20.79,127.30Q22.00,127.00 22.00,125.75L22.00,124.94Q22.00,124.00 21.16,123.58L20.84,123.42Q20.00,123.00 20.00,122.06L20.00,111.25Q20.00,110.00 20.88,109.12L24.12,105.88Q25.00,105.00 25.00,103.75L25.00,103.25Q25.00,102.00 26.12,101.44L27.88,100.56Q29.00,100.00 29.00,98.75L29.00,98.25Q29.00,97.00 30.19,96.60L30.81,96.40Q32.00,96.00 32.64,94.93L34.36,92.07Q35.00,91.00 36.23,90.75L38.77,90.25Q40.00,90.00 40.56,88.88L41.44,87.12Q42.00,86.00 43.25,86.00L55.75,86.00Q57.00,86.00 57.40,84.81L58.60,81.19Q59.00,80.00 60.25,80.00L80.75,80.00Q82.00,80.00 82.25,81.23L82.75,83.77Q83.00,85.00 84.25,85.00L84.75,85.00Q86.00,85.00 87.10,84.41L97.90,78.59Q99.00,78.00 100.25,78.00Z"/><path fill="#fffbed" d="M105.25,83.00L128.75,83.00Q130.00,83.00 131.18,83.41L158.21,92.73Q159.00,93.00 159.00,93.84L159.00,94.16Q159.00,95.00 159.70,95.47L161.30,96.53Q162.00,97.00 162.00,97.84L162.00,98.16Q162.00,99.00 162.70,99.47L163.96,100.31Q165.00,101.00 165.46,102.16L166.54,104.84Q167.00,106.00 167.80,106.96L176.20,117.04Q177.00,118.00 177.00,119.25L177.00,138.06Q177.00,139.00 176.16,139.42L175.84,139.58Q175.00,140.00 174.91,140.94L174.11,149.76Q174.00,151.00 175.21,151.30L180.79,152.70Q182.00,153.00 182.00,154.25L182.00,168.75Q182.00,170.00 180.88,170.56L175.12,173.44Q174.00,174.00 173.89,175.24L173.11,183.76Q173.00,185.00 172.12,185.88L166.88,191.12Q166.00,192.00 164.75,192.00L154.25,192.00Q153.00,192.00 153.00,193.25L153.00,194.81Q153.00,196.00 152.16,196.84L151.84,197.16Q151.00,198.00 149.82,198.13L143.24,198.86Q142.00,199.00 141.60,200.19L141.40,200.81Q141.00,202.00 139.88,202.56L138.12,203.44Q137.00,204.00 135.75,204.00L123.25,204.00Q122.00,204.00 121.70,202.79L121.30,201.21Q121.00,200.00 119.77,199.75L116.92,199.18Q116.00,199.00 115.58,198.16L115.42,197.84Q115.00,197.00 114.06,197.00L112.19,197.00Q111.00,197.00 110.16,197.84L109.84,198.16Q109.00,199.00 107.81,199.00L87.25,199.00Q86.00,199.00 85.00,198.25L83.00,196.75Q82.00,196.00 80.75,196.00L79.25,196.00Q78.00,196.00 77.31,197.04L76.69,197.96Q76.00,199.00 74.75,199.00L73.25,199.00Q72.00,199.00 71.31,200.04L70.69,200.96Q70.00,202.00 68.75,202.00L58.25,202.00Q57.00,202.00 55.81,201.60L49.19,199.40Q48.00,199.00 47.56,197.83L45.44,192.17Q45.00,191.00 43.76,190.84L38.24,190.16Q37.00,190.00 36.70,188.79L36.30,187.21Q36.00,186.00 34.84,185.54L32.16,184.46Q31.00,184.00 31.00,182.75L31.00,163.25Q31.00,162.00 29.76,161.84L24.24,161.16Q23.00,161.00 22.44,159.88L21.56,158.12Q21.00,157.00 20.00,156.25L18.00,154.75Q17.00,154.00 17.08,152.75L17.92,139.25Q18.00,138.00 19.12,137.44L20.88,136.56Q22.00,136.00 22.00,134.75L22.00,132.25Q22.00,131.00 23.12,130.44L26.88,128.56Q28.00,128.00 27.44,126.88L26.56,125.12Q26.00,124.00 26.00,122.75L26.00,111.25Q26.00,110.00 26.69,108.96L27.31,108.04Q28.00,107.00 29.25,107.00L29.75,107.00Q31.00,107.00 31.88,106.12L35.12,102.88Q36.00,102.00 36.21,100.77L36.79,97.23Q37.00,96.00 38.25,96.00L39.75,96.00Q41.00,96.00 41.56,94.88L42.44,93.12Q43.00,92.00 44.25,91.91L55.75,91.09Q57.00,91.00 57.64,89.93L59.36,87.07Q60.00,86.00 61.25,86.00L75.75,86.00Q77.00,86.00 77.46,87.16L78.54,89.84Q79.00,91.00 80.24,91.12L87.76,91.88Q89.00,92.00 89.69,90.96L90.31,90.04Q91.00,89.00 92.20,88.66L96.80,87.34Q98.00,87.00 99.04,86.31L102.96,83.69Q104.00,83.00 105.25,83.00Z"/></g><g clip-path="url(#part-body)"><g filter="url(#bu-soft-shade)"><path d="M79.25,93.00L80.06,93.00Q81.00,93.00 81.42,93.84L81.58,94.16Q82.00,95.00 81.09,95.23L79.21,95.70Q78.00,96.00 78.00,94.75L78.00,94.25Q78.00,93.00 79.25,93.00ZM85.19,96.40L85.81,96.60Q87.00,97.00 86.70,98.21L86.30,99.79Q86.00,101.00 84.75,101.00L84.25,101.00Q83.00,101.00 83.25,99.77L83.75,97.23Q84.00,96.00 85.19,96.40ZM29.84,123.42L30.16,123.58Q31.00,124.00 30.82,124.92L30.25,127.77Q30.00,129.00 29.44,127.88L28.42,125.84Q28.00,125.00 28.42,124.16L28.58,123.84Q29.00,123.00 29.84,123.42ZM111.12,130.56L112.88,131.44Q114.00,132.00 114.16,133.24L114.84,138.76Q115.00,140.00 113.75,140.00L113.25,140.00Q112.00,140.00 111.25,139.00L109.75,137.00Q109.00,136.00 107.75,136.00L106.94,136.00Q106.00,136.00 106.84,135.58L107.16,135.42Q108.00,135.00 108.35,134.13L109.54,131.16Q110.00,130.00 111.12,130.56ZM117.21,141.30L118.79,141.70Q120.00,142.00 120.00,143.25L120.00,143.81Q120.00,145.00 119.16,145.84L118.66,146.34Q118.00,147.00 117.16,146.58L116.84,146.42Q116.00,146.00 116.00,145.06L116.00,142.25Q116.00,141.00 117.21,141.30ZM19.84,148.00L20.16,148.00Q21.00,148.00 21.43,148.72L23.36,151.93Q24.00,153.00 25.24,153.12L33.07,153.91Q34.00,154.00 33.58,154.84L33.42,155.16Q33.00,156.00 33.89,156.30L35.20,156.73Q36.00,157.00 36.00,157.84L36.00,158.16Q36.00,159.00 35.25,158.62L34.84,158.42Q34.00,158.00 33.22,158.52L32.04,159.31Q31.00,160.00 29.75,160.00L24.25,160.00Q23.00,160.00 22.70,158.79L22.30,157.21Q22.00,156.00 21.00,155.25L19.00,153.75Q18.00,153.00 18.25,151.77L18.84,148.82Q19.00,148.00 19.84,148.00ZM179.84,152.00L180.16,152.00Q181.00,152.00 180.96,152.84L180.07,169.75Q180.00,171.00 178.77,171.21L175.17,171.80Q174.00,172.00 173.16,172.84L172.84,173.16Q172.00,174.00 171.91,175.18L171.10,185.75Q171.00,187.00 169.79,187.30L168.21,187.70Q167.00,188.00 166.44,189.12L165.56,190.88Q165.00,192.00 163.75,192.00L160.25,192.00Q159.00,192.00 158.75,190.77L157.25,183.23Q157.00,182.00 158.16,181.54L160.84,180.46Q162.00,180.00 162.40,178.81L162.60,178.19Q163.00,177.00 164.04,176.31L164.96,175.69Q166.00,175.00 166.18,173.76L166.88,168.83Q167.00,168.00 167.84,168.00L168.16,168.00Q169.00,168.00 169.47,168.70L170.31,169.96Q171.00,171.00 172.16,170.54L174.84,169.46Q176.00,169.00 176.16,167.76L176.84,162.24Q177.00,161.00 175.79,160.70L174.15,160.29Q173.00,160.00 172.16,160.84L171.84,161.16Q171.00,162.00 169.81,162.00L154.25,162.00Q153.00,162.00 152.75,160.77L152.25,158.23Q152.00,157.00 153.25,156.93L167.75,156.07Q169.00,156.00 169.69,154.96L170.31,154.04Q171.00,153.00 172.24,152.84L178.17,152.10Q179.00,152.00 179.84,152.00ZM34.19,166.00L34.75,166.00Q36.00,166.00 36.00,167.25L36.00,173.75Q36.00,175.00 36.46,176.16L37.54,178.84Q38.00,180.00 39.00,180.75L41.00,182.25Q42.00,183.00 43.04,182.31L43.96,181.69Q45.00,181.00 46.19,181.40L46.81,181.60Q48.00,182.00 47.82,183.24L47.18,187.76Q47.00,189.00 47.75,190.00L49.25,192.00Q50.00,193.00 51.21,193.30L52.79,193.70Q54.00,194.00 54.30,195.21L54.70,196.79Q55.00,198.00 56.25,198.00L70.16,198.00Q71.00,198.00 71.00,198.84L71.00,199.16Q71.00,200.00 70.16,200.05L55.25,200.93Q54.00,201.00 53.12,200.12L51.88,198.88Q51.00,198.00 49.75,198.00L49.25,198.00Q48.00,198.00 47.79,196.77L47.21,193.23Q47.00,192.00 46.00,191.25L44.00,189.75Q43.00,189.00 41.75,189.00L39.25,189.00Q38.00,189.00 37.70,187.79L37.30,186.21Q37.00,185.00 35.79,184.70L34.21,184.30Q33.00,184.00 32.31,182.96L31.69,182.04Q31.00,181.00 31.00,179.75L31.00,169.19Q31.00,168.00 31.84,167.16L32.16,166.84Q33.00,166.00 34.19,166.00ZM77.19,186.40L80.81,187.60Q82.00,188.00 82.46,189.16L83.54,191.84Q84.00,193.00 85.25,193.00L91.06,193.00Q92.00,193.00 92.42,193.84L92.58,194.16Q93.00,195.00 93.94,195.00L99.06,195.00Q100.00,195.00 100.42,194.16L100.58,193.84Q101.00,193.00 101.94,193.00L104.75,193.00Q106.00,193.00 106.56,191.88L107.44,190.12Q108.00,189.00 109.12,189.56L110.88,190.44Q112.00,191.00 112.69,189.96L113.31,189.04Q114.00,188.00 115.19,188.40L115.81,188.60Q117.00,189.00 117.00,190.25L117.00,191.75Q117.00,193.00 115.75,193.00L111.25,193.00Q110.00,193.00 110.00,194.25L110.00,197.06Q110.00,198.00 109.16,198.42L108.84,198.58Q108.00,199.00 107.06,199.00L89.25,199.00Q88.00,199.00 86.79,198.70L85.21,198.30Q84.00,198.00 83.54,196.84L82.46,194.16Q82.00,193.00 80.81,192.60L77.19,191.40Q76.00,191.00 76.00,189.75L76.00,187.25Q76.00,186.00 77.19,186.40ZM150.19,190.40L150.81,190.60Q152.00,191.00 151.79,192.23L151.21,195.77Q151.00,197.00 149.81,196.60L149.19,196.40Q148.00,196.00 148.21,194.77L148.79,191.23Q149.00,190.00 150.19,190.40ZM117.25,195.00L118.06,195.00Q119.00,195.00 119.42,195.84L119.58,196.16Q120.00,197.00 120.87,197.35L123.84,198.54Q125.00,199.00 126.25,199.00L127.75,199.00Q129.00,199.00 129.00,200.25L129.00,200.75Q129.00,202.00 127.77,202.21L124.23,202.79Q123.00,203.00 122.44,201.88L121.56,200.12Q121.00,199.00 119.77,198.75L117.23,198.25Q116.00,198.00 116.00,196.75L116.00,196.25Q116.00,195.00 117.25,195.00ZM141.25,196.00L142.16,196.00Q143.00,196.00 143.00,196.84L143.00,197.16Q143.00,198.00 142.16,198.00L141.84,198.00Q141.00,198.00 140.80,198.81L140.23,201.09Q140.00,202.00 139.16,202.42L138.84,202.58Q138.00,203.00 137.77,202.09L137.30,200.21Q137.00,199.00 137.88,198.12L139.12,196.88Q140.00,196.00 141.25,196.00Z" fill="#dabca4" opacity=".43"/></g></g></g><g class="bu-head"><g class="bu-ear bu-ear-left"><g><path fill="#856479" d="M106.24,78.18L117.76,79.82Q119.00,80.00 119.61,81.09L123.39,87.91Q124.00,89.00 124.00,90.25L124.00,92.75Q124.00,94.00 122.96,94.69L121.70,95.53Q121.00,96.00 121.00,96.84L121.00,97.16Q121.00,98.00 120.45,98.64L115.81,104.05Q115.00,105.00 114.94,106.25L114.06,125.75Q114.00,127.00 112.75,127.00L110.25,127.00Q109.00,127.00 109.00,128.25L109.00,130.75Q109.00,132.00 108.00,132.75L106.00,134.25Q105.00,135.00 104.60,136.19L104.40,136.81Q104.00,138.00 102.75,138.00L102.25,138.00Q101.00,138.00 100.25,139.00L95.75,145.00Q95.00,146.00 93.75,146.06L76.25,146.94Q75.00,147.00 74.75,145.77L74.25,143.23Q74.00,142.00 72.84,141.54L70.16,140.46Q69.00,140.00 68.92,138.75L68.08,125.25Q68.00,124.00 68.98,123.22L72.02,120.78Q73.00,120.00 73.00,118.75L73.00,118.25Q73.00,117.00 74.04,116.31L74.96,115.69Q76.00,115.00 76.00,113.75L76.00,113.25Q76.00,112.00 77.19,111.60L77.81,111.40Q79.00,111.00 79.30,109.79L79.80,107.81Q80.00,107.00 80.84,107.00L81.16,107.00Q82.00,107.00 82.38,106.25L83.44,104.12Q84.00,103.00 85.12,102.44L86.88,101.56Q88.00,101.00 88.00,99.75L88.00,92.94Q88.00,92.00 88.84,91.58L89.16,91.42Q90.00,91.00 90.89,91.30L94.81,92.60Q96.00,93.00 96.00,91.75L96.00,87.25Q96.00,86.00 96.93,85.17L104.07,78.83Q105.00,78.00 106.24,78.18Z"/><path fill="#fff2df" d="M109.25,85.00L112.75,85.00Q114.00,85.00 114.69,86.04L115.31,86.96Q116.00,88.00 116.00,89.25L116.00,90.75Q116.00,92.00 114.81,92.40L113.80,92.73Q113.00,93.00 113.00,93.84L113.00,94.16Q113.00,95.00 112.41,95.59L109.88,98.12Q109.00,99.00 109.00,100.25L109.00,116.75Q109.00,118.00 108.60,119.19L108.40,119.81Q108.00,121.00 106.96,121.69L106.04,122.31Q105.00,123.00 104.79,124.23L104.21,127.77Q104.00,129.00 103.16,129.93L95.84,138.07Q95.00,139.00 93.88,139.56L92.12,140.44Q91.00,141.00 89.75,141.00L78.25,141.00Q77.00,141.00 76.44,139.88L74.56,136.12Q74.00,135.00 74.10,133.75L74.90,124.25Q75.00,123.00 76.19,122.60L76.81,122.40Q78.00,122.00 78.40,120.81L78.60,120.19Q79.00,119.00 80.00,118.25L82.00,116.75Q83.00,116.00 83.00,114.75L83.00,114.25Q83.00,113.00 83.88,112.12L89.12,106.88Q90.00,106.00 90.00,104.75L90.00,104.25Q90.00,103.00 91.12,102.44L92.88,101.56Q94.00,101.00 94.25,99.77L94.75,97.23Q95.00,96.00 96.25,96.00L101.75,96.00Q103.00,96.00 103.00,94.75L103.00,90.25Q103.00,89.00 103.98,88.22L107.02,85.78Q108.00,85.00 109.25,85.00Z"/></g><g clip-path="url(#part-ear-l)"><g filter="url(#bu-soft-shade)"><path d="M97.23,98.25L100.18,98.84Q101.00,99.00 100.16,99.00L99.84,99.00Q99.00,99.00 99.00,99.84L99.00,100.16Q99.00,101.00 98.16,101.00L97.25,101.00Q96.00,101.00 96.00,99.75L96.00,99.25Q96.00,98.00 97.23,98.25ZM106.19,105.40L106.81,105.60Q108.00,106.00 108.00,107.25L108.00,117.75Q108.00,119.00 107.12,119.88L105.88,121.12Q105.00,122.00 104.79,123.23L104.21,126.77Q104.00,128.00 102.96,128.69L102.04,129.31Q101.00,130.00 100.54,131.16L99.46,133.84Q99.00,135.00 97.93,135.64L90.07,140.36Q89.00,141.00 88.12,140.12L86.88,138.88Q86.00,138.00 86.00,136.75L86.00,132.25Q86.00,131.00 86.83,130.06L100.17,114.94Q101.00,114.00 101.00,112.75L101.00,112.25Q101.00,111.00 101.69,109.96L104.31,106.04Q105.00,105.00 106.19,105.40Z" fill="#dabca4" opacity=".43"/></g></g></g><g class="bu-ear bu-ear-right"><g><path fill="#856479" d="M203.25,56.06L220.75,56.94Q222.00,57.00 222.96,57.80L227.04,61.20Q228.00,62.00 229.25,62.00L232.75,62.00Q234.00,62.00 234.30,63.21L234.70,64.79Q235.00,66.00 236.16,66.46L238.84,67.54Q240.00,68.00 240.00,69.25L240.00,70.75Q240.00,72.00 241.16,72.46L243.84,73.54Q245.00,74.00 245.00,75.25L245.00,86.75Q245.00,88.00 244.00,88.75L242.00,90.25Q241.00,91.00 240.60,92.19L240.40,92.81Q240.00,94.00 238.81,94.40L238.19,94.60Q237.00,95.00 236.60,96.19L236.40,96.81Q236.00,98.00 234.75,98.00L220.25,98.00Q219.00,98.00 218.44,96.88L217.56,95.12Q217.00,94.00 215.76,94.16L210.24,94.84Q209.00,95.00 208.25,94.00L206.75,92.00Q206.00,91.00 206.00,89.75L206.00,87.25Q206.00,86.00 205.00,85.25L203.00,83.75Q202.00,83.00 201.60,81.81L201.40,81.19Q201.00,80.00 199.75,80.00L195.25,80.00Q194.00,80.00 193.01,79.23L185.99,73.77Q185.00,73.00 184.75,71.77L183.25,64.23Q183.00,63.00 184.02,62.27L188.98,58.73Q190.00,58.00 191.24,58.16L196.76,58.84Q198.00,59.00 199.00,58.25L201.00,56.75Q202.00,56.00 203.25,56.06Z"/><path fill="#fff2df" d="M203.25,62.07L218.75,62.93Q220.00,63.00 220.56,64.12L221.44,65.88Q222.00,67.00 223.25,67.00L226.75,67.00Q228.00,67.00 228.69,68.04L229.31,68.96Q230.00,70.00 231.25,70.00L231.75,70.00Q233.00,70.00 233.69,71.04L234.31,71.96Q235.00,73.00 236.25,73.00L236.75,73.00Q238.00,73.00 238.00,74.25L238.00,86.75Q238.00,88.00 237.02,88.78L233.98,91.22Q233.00,92.00 231.75,92.00L224.25,92.00Q223.00,92.00 221.83,91.56L216.17,89.44Q215.00,89.00 214.25,88.00L212.75,86.00Q212.00,85.00 210.81,84.60L210.19,84.40Q209.00,84.00 209.00,82.75L209.00,81.25Q209.00,80.00 207.88,79.44L206.12,78.56Q205.00,78.00 204.70,76.79L204.30,75.21Q204.00,74.00 202.75,74.00L201.25,74.00Q200.00,74.00 198.93,73.36L191.07,68.64Q190.00,68.00 190.69,66.96L191.31,66.04Q192.00,65.00 193.25,65.00L198.75,65.00Q200.00,65.00 200.69,63.96L201.31,63.04Q202.00,62.00 203.25,62.07Z"/></g><g clip-path="url(#part-ear-r)"><g filter="url(#bu-soft-shade)"><path d="M202.25,64.00L202.75,64.00Q204.00,64.00 204.25,65.23L204.75,67.77Q205.00,69.00 205.96,69.80L210.04,73.20Q211.00,74.00 212.20,74.33L227.80,78.67Q229.00,79.00 229.81,79.95L234.19,85.05Q235.00,86.00 236.19,85.60L236.81,85.40Q238.00,85.00 238.00,86.25L238.00,86.75Q238.00,88.00 237.00,88.75L235.00,90.25Q234.00,91.00 232.75,91.00L221.25,91.00Q220.00,91.00 219.31,89.96L218.69,89.04Q218.00,88.00 216.75,88.00L215.25,88.00Q214.00,88.00 213.12,87.12L210.88,84.88Q210.00,84.00 210.00,82.75L210.00,80.25Q210.00,79.00 208.88,78.44L207.12,77.56Q206.00,77.00 206.00,75.75L206.00,74.25Q206.00,73.00 205.02,72.22L201.98,69.78Q201.00,69.00 201.00,67.75L201.00,65.25Q201.00,64.00 202.25,64.00Z" fill="#dabca4" opacity=".43"/></g></g></g><g><path fill="#856479" d="M152.25,55.00L157.75,55.00Q159.00,55.00 160.17,55.44L165.83,57.56Q167.00,58.00 168.25,58.00L170.75,58.00Q172.00,58.00 173.21,58.30L183.09,60.77Q184.00,61.00 184.42,61.84L184.58,62.16Q185.00,63.00 185.94,63.00L198.75,63.00Q200.00,63.00 200.00,64.25L200.00,66.75Q200.00,68.00 201.00,68.75L203.00,70.25Q204.00,71.00 204.18,72.24L204.82,76.76Q205.00,78.00 206.12,78.56L207.88,79.44Q209.00,80.00 209.00,81.25L209.00,82.75Q209.00,84.00 210.12,84.56L211.88,85.44Q213.00,86.00 213.00,87.25L213.00,87.81Q213.00,89.00 213.84,89.84L214.41,90.41Q215.00,91.00 215.00,91.84L215.00,92.16Q215.00,93.00 214.30,93.47L213.04,94.31Q212.00,95.00 212.88,95.88L214.12,97.12Q215.00,98.00 215.00,99.25L215.00,118.75Q215.00,120.00 213.84,120.46L211.16,121.54Q210.00,122.00 210.00,123.25L210.00,128.75Q210.00,130.00 208.84,130.46L206.16,131.54Q205.00,132.00 205.00,133.25L205.00,134.75Q205.00,136.00 203.79,136.30L202.21,136.70Q201.00,137.00 200.36,138.07L198.64,140.93Q198.00,142.00 196.75,142.00L196.25,142.00Q195.00,142.00 195.00,143.25L195.00,143.81Q195.00,145.00 194.16,145.84L193.84,146.16Q193.00,147.00 191.81,147.00L188.25,147.00Q187.00,147.00 186.44,148.12L184.56,151.88Q184.00,153.00 182.75,152.90L172.25,152.10Q171.00,152.00 170.25,153.00L168.75,155.00Q168.00,156.00 166.75,156.00L141.25,156.00Q140.00,156.00 139.44,154.88L138.56,153.12Q138.00,152.00 136.75,152.00L132.25,152.00Q131.00,152.00 130.31,150.96L129.69,150.04Q129.00,149.00 127.75,149.00L127.25,149.00Q126.00,149.00 125.60,147.81L125.40,147.19Q125.00,146.00 123.75,146.00L123.25,146.00Q122.00,146.00 121.70,144.79L121.30,143.21Q121.00,142.00 119.84,141.54L117.16,140.46Q116.00,140.00 116.00,138.75L116.00,137.25Q116.00,136.00 115.20,135.04L111.80,130.96Q111.00,130.00 111.00,128.75L111.00,127.94Q111.00,127.00 110.16,126.58L109.84,126.42Q109.00,126.00 108.97,125.06L108.03,91.25Q108.00,90.00 109.23,89.75L111.77,89.25Q113.00,89.00 113.18,87.76L113.82,83.24Q114.00,82.00 115.04,81.31L116.30,80.47Q117.00,80.00 117.00,79.16L117.00,78.84Q117.00,78.00 117.59,77.41L121.12,73.88Q122.00,73.00 122.64,71.93L127.36,64.07Q128.00,63.00 129.21,62.70L138.79,60.30Q140.00,60.00 141.14,59.48L149.86,55.52Q151.00,55.00 152.25,55.00Z"/><path fill="#fff1db" d="M154.23,61.21L169.77,63.79Q171.00,64.00 171.88,64.88L173.12,66.12Q174.00,67.00 175.25,67.00L179.06,67.00Q180.00,67.00 180.42,67.84L180.58,68.16Q181.00,69.00 181.94,69.00L193.75,69.00Q195.00,69.00 195.40,70.19L195.60,70.81Q196.00,72.00 197.04,72.69L197.96,73.31Q199.00,74.00 199.00,75.25L199.00,75.75Q199.00,77.00 200.04,77.69L200.96,78.31Q202.00,79.00 202.00,80.25L202.00,81.75Q202.00,83.00 203.00,83.75L205.00,85.25Q206.00,86.00 206.14,87.24L206.87,93.82Q207.00,95.00 207.84,95.84L208.16,96.16Q209.00,97.00 208.95,98.19L208.06,117.75Q208.00,119.00 206.88,119.56L205.12,120.44Q204.00,121.00 204.00,122.25L204.00,123.75Q204.00,125.00 203.20,125.96L199.54,130.35Q199.00,131.00 199.00,131.84L199.00,132.16Q199.00,133.00 198.27,133.42L193.09,136.38Q192.00,137.00 191.31,138.04L190.69,138.96Q190.00,140.00 188.75,140.00L188.25,140.00Q187.00,140.00 186.31,141.04L185.69,141.96Q185.00,143.00 183.77,143.25L181.23,143.75Q180.00,144.00 179.31,145.04L178.69,145.96Q178.00,147.00 176.75,147.00L170.25,147.00Q169.00,147.00 168.31,148.04L167.69,148.96Q167.00,150.00 165.75,150.00L143.25,150.00Q142.00,150.00 141.25,149.00L139.75,147.00Q139.00,146.00 137.75,146.00L134.25,146.00Q133.00,146.00 132.31,144.96L131.69,144.04Q131.00,143.00 129.75,143.00L129.25,143.00Q128.00,143.00 127.60,141.81L127.40,141.19Q127.00,140.00 125.93,139.36L123.07,137.64Q122.00,137.00 121.60,135.81L120.40,132.19Q120.00,131.00 118.96,130.31L118.04,129.69Q117.00,129.00 116.70,127.79L115.30,122.21Q115.00,121.00 114.95,119.75L114.05,97.25Q114.00,96.00 115.16,95.54L117.84,94.46Q119.00,94.00 119.00,92.75L119.00,88.25Q119.00,87.00 120.04,86.31L121.30,85.47Q122.00,85.00 122.00,84.16L122.00,83.84Q122.00,83.00 122.59,82.41L126.12,78.88Q127.00,78.00 127.64,76.93L132.36,69.07Q133.00,68.00 134.21,67.70L143.79,65.30Q145.00,65.00 146.12,64.44L151.88,61.56Q153.00,61.00 154.23,61.21Z"/></g><g/><g class="bu-face-features"><g fill="#efacb9"><ellipse cx="135.3" cy="137.5" rx="9.95" ry="8.35" transform="rotate(12 135.3 137.5)"/><ellipse cx="202.7" cy="113.5" rx="6.3" ry="8.55" transform="rotate(19 202.7 113.5)"/></g><g class="bu-cheek-glow" fill="#e696ab"><ellipse cx="135.3" cy="137.5" rx="9.95" ry="8.35" transform="rotate(12 135.3 137.5)"/><ellipse cx="202.7" cy="113.5" rx="6.3" ry="8.55" transform="rotate(19 202.7 113.5)"/></g><g xmlns="http://www.w3.org/2000/svg" class="bu-eye-open">
<g clip-path="url(#bu-eye-l)"><g class="bu-pupil"><ellipse class="bu-ink" cx="138" cy="116.7" rx="8.8" ry="13.4" transform="rotate(-18 138 116.7)" /><circle cx="139" cy="108" r="2.15" fill="#fffef7" /></g></g>
<g clip-path="url(#bu-eye-r)"><g class="bu-pupil"><ellipse class="bu-ink" cx="191.1" cy="98.7" rx="8.1" ry="13.3" transform="rotate(-15.5 191.1 98.7)" /><circle cx="192.2" cy="90.5" r="2.15" fill="#fffef7" /></g></g>
</g>
<g xmlns="http://www.w3.org/2000/svg" fill="none" stroke="#39493d" stroke-width="3" stroke-linecap="round"><path class="bu-eye-closed" d="M130 119q8 6 16-3 M184 101q7.5 5.5 14.5-3" /><path class="bu-eye-happy" d="M130 119q6-9 15-4 M184 101q6-8 14-4" /><path class="bu-smile" d="M166 126q9 9 16-4" /></g>
<ellipse xmlns="http://www.w3.org/2000/svg" cx="173.3" cy="118.7" rx="3.35" ry="2.3" fill="#ab797e" transform="rotate(-22 173.3 118.7)" />
<g xmlns="http://www.w3.org/2000/svg" class="bu-mouth-open"><path d="M168 126q7-3 13-2l-1 9q-6 11-11 0Z" fill="#856479" /><path class="bu-pink" d="M171 133q4-4 8-2-2 8-6 5Z" /></g>
<g xmlns="http://www.w3.org/2000/svg" class="bu-grass bu-ink"><path d="m178 131 27-5 13 4-22 3 22 5 10 7-25-6 17 13 3 7-30-20Z" /></g>
</g><g class="bu-forelock"><g><path fill="#856479" d="M139.25,16.00L159.75,16.00Q161.00,16.00 161.56,17.12L162.44,18.88Q163.00,20.00 164.23,20.25L166.77,20.75Q168.00,21.00 168.00,22.25L168.00,22.75Q168.00,24.00 169.25,24.00L170.75,24.00Q172.00,24.00 172.30,22.79L172.70,21.21Q173.00,20.00 174.25,20.00L188.75,20.00Q190.00,20.00 190.56,21.12L191.44,22.88Q192.00,24.00 193.24,24.18L197.76,24.82Q199.00,25.00 199.40,26.19L199.60,26.81Q200.00,28.00 201.07,28.64L203.93,30.36Q205.00,31.00 205.00,32.25L205.00,32.75Q205.00,34.00 206.07,34.64L208.93,36.36Q210.00,37.00 210.00,38.25L210.00,50.81Q210.00,52.00 209.16,52.84L208.84,53.16Q208.00,54.00 208.17,55.18L208.82,59.76Q209.00,61.00 207.76,61.18L203.24,61.82Q202.00,62.00 201.38,63.09L198.62,67.91Q198.00,69.00 196.75,69.00L181.94,69.00Q181.00,69.00 180.58,68.16L180.42,67.84Q180.00,67.00 179.06,67.00L178.25,67.00Q177.00,67.00 176.75,68.23L176.25,70.77Q176.00,72.00 174.81,72.40L174.19,72.60Q173.00,73.00 172.31,74.04L169.69,77.96Q169.00,79.00 167.75,79.00L165.25,79.00Q164.00,79.00 163.60,80.19L163.40,80.81Q163.00,82.00 161.96,82.69L161.04,83.31Q160.00,84.00 158.75,84.00L144.25,84.00Q143.00,84.00 142.25,83.00L140.71,80.95Q140.00,80.00 139.16,80.84L138.84,81.16Q138.00,82.00 138.00,83.19L138.00,84.75Q138.00,86.00 137.00,86.75L127.00,94.25Q126.00,95.00 124.75,95.00L115.25,95.00Q114.00,95.00 112.88,95.56L111.12,96.44Q110.00,97.00 109.25,96.00L107.75,94.00Q107.00,93.00 106.12,93.88L103.88,96.12Q103.00,97.00 101.76,96.84L96.24,96.16Q95.00,96.00 94.31,97.04L93.69,97.96Q93.00,99.00 91.75,99.00L90.25,99.00Q89.00,99.00 88.31,97.96L87.69,97.04Q87.00,96.00 85.75,96.00L85.25,96.00Q84.00,96.00 83.70,94.79L83.30,93.21Q83.00,92.00 81.79,91.70L80.21,91.30Q79.00,91.00 78.44,89.88L77.56,88.12Q77.00,87.00 77.00,85.75L77.00,68.25Q77.00,67.00 78.21,66.70L79.79,66.30Q81.00,66.00 81.30,64.79L81.70,63.21Q82.00,62.00 83.19,61.60L83.81,61.40Q85.00,61.00 85.69,59.96L88.31,56.04Q89.00,55.00 90.24,54.82L94.76,54.18Q96.00,54.00 96.00,52.75L96.00,44.25Q96.00,43.00 97.21,42.70L98.79,42.30Q100.00,42.00 100.46,40.84L101.54,38.16Q102.00,37.00 103.25,37.00L104.75,37.00Q106.00,37.00 106.40,35.81L107.60,32.19Q108.00,31.00 109.25,31.00L122.75,31.00Q124.00,31.00 124.00,29.75L124.00,28.25Q124.00,27.00 125.23,26.75L127.77,26.25Q129.00,26.00 129.40,24.81L130.60,21.19Q131.00,20.00 132.25,20.00L135.75,20.00Q137.00,20.00 137.30,18.79L137.70,17.21Q138.00,16.00 139.25,16.00Z"/><path fill="#fffbed" d="M140.25,22.00L159.75,22.00Q161.00,22.00 161.30,23.21L161.70,24.79Q162.00,26.00 163.21,26.30L164.79,26.70Q166.00,27.00 166.56,28.12L167.44,29.88Q168.00,31.00 169.25,31.00L169.75,31.00Q171.00,31.00 171.64,29.93L173.36,27.07Q174.00,26.00 175.25,26.00L186.75,26.00Q188.00,26.00 188.46,27.16L189.54,29.84Q190.00,31.00 191.25,31.00L196.75,31.00Q198.00,31.00 198.30,32.21L198.70,33.79Q199.00,35.00 200.16,35.46L202.84,36.54Q204.00,37.00 203.93,38.25L203.07,53.75Q203.00,55.00 201.88,55.56L200.12,56.44Q199.00,57.00 198.36,58.07L196.64,60.93Q196.00,62.00 194.79,62.30L193.21,62.70Q192.00,63.00 190.75,63.00L183.25,63.00Q182.00,63.00 180.79,62.70L175.21,61.30Q174.00,61.00 173.60,62.19L171.40,68.81Q171.00,70.00 169.81,70.40L169.19,70.60Q168.00,71.00 167.12,71.88L162.88,76.12Q162.00,77.00 160.75,77.10L150.25,77.90Q149.00,78.00 147.76,77.84L141.93,77.12Q141.00,77.00 140.58,76.16L140.42,75.84Q140.00,75.00 139.08,74.82L136.23,74.25Q135.00,74.00 134.86,75.24L134.14,81.76Q134.00,83.00 132.88,83.56L131.12,84.44Q130.00,85.00 129.70,86.21L129.30,87.79Q129.00,89.00 127.75,89.07L112.94,89.94Q112.00,90.00 111.58,89.16L111.42,88.84Q111.00,88.00 110.06,88.00L108.25,88.00Q107.00,88.00 106.04,88.80L101.96,92.20Q101.00,93.00 99.75,93.00L95.25,93.00Q94.00,93.00 92.81,92.60L89.19,91.40Q88.00,91.00 87.70,89.79L87.30,88.21Q87.00,87.00 85.88,86.44L84.12,85.56Q83.00,85.00 83.00,83.75L83.00,70.25Q83.00,69.00 84.19,68.60L84.81,68.40Q86.00,68.00 86.40,66.81L86.60,66.19Q87.00,65.00 88.19,64.60L88.81,64.40Q90.00,64.00 90.69,62.96L91.31,62.04Q92.00,61.00 93.25,61.00L98.81,61.00Q100.00,61.00 100.84,60.16L101.16,59.84Q102.00,59.00 102.07,57.81L102.92,44.25Q103.00,43.00 104.25,43.00L104.75,43.00Q106.00,43.00 106.40,41.81L106.60,41.19Q107.00,40.00 108.00,39.25L110.00,37.75Q111.00,37.00 112.25,37.00L124.75,37.00Q126.00,37.00 126.30,35.79L126.70,34.21Q127.00,33.00 128.19,32.60L128.81,32.40Q130.00,32.00 130.64,30.93L132.36,28.07Q133.00,27.00 134.23,26.75L136.77,26.25Q138.00,26.00 138.30,24.79L138.70,23.21Q139.00,22.00 140.25,22.00Z"/></g><g clip-path="url(#part-tuft)"><g filter="url(#bu-soft-shade)"><path d="M175.25,56.00L175.75,56.00Q177.00,56.00 177.40,57.19L177.60,57.81Q178.00,59.00 176.79,59.30L175.21,59.70Q174.00,60.00 174.00,58.75L174.00,57.25Q174.00,56.00 175.25,56.00ZM139.84,73.00L140.16,73.00Q141.00,73.00 141.38,73.75L141.58,74.16Q142.00,75.00 141.16,75.42L140.84,75.58Q140.00,76.00 139.70,75.11L139.27,73.80Q139.00,73.00 139.84,73.00ZM90.84,86.42L91.16,86.58Q92.00,87.00 91.77,87.91L91.23,90.09Q91.00,91.00 90.16,90.58L89.84,90.42Q89.00,90.00 89.23,89.09L89.77,86.91Q90.00,86.00 90.84,86.42Z" fill="#dabca4" opacity=".43"/></g></g></g></g></g></g><g xmlns="http://www.w3.org/2000/svg" class="bu-zzz" fill="none" stroke="#856479" stroke-width="3"><path d="M212 42h12l-12 12h12m10-35h16l-16 16h16" /></g>
</svg>